<svg viewBox="0 0 725 370" fill="none" xmlns="http://www.w3.org/2000/svg">
<path d="M133.61 39.4697C116.651 4.67339 74.5767 -9.84367 39.6345 7.04474C4.69288 23.9332 -9.88475 65.8316 7.07414 100.628L119.133 330.547C130.867 354.62 155.351 369.932 182.222 370C209.095 370.067 233.656 354.881 245.513 330.866L359.027 100.948C376.163 66.2381 361.8 24.2662 326.945 7.20118C292.089 -9.86407 249.942 4.43954 232.805 39.1494L182.808 140.414L133.61 39.4697Z" fill="#FFFAEB"/>
<path d="M605.392 39.4697C593.657 15.3955 569.171 0.0842943 542.301 0.0161912C515.432 -0.0519119 490.867 15.1353 479.012 39.1494L365.497 269.068C354.779 290.775 356.069 316.452 368.909 336.985C381.747 357.518 404.318 370 428.608 370H654.183C678.408 370 700.927 357.583 713.787 337.136C726.642 316.689 728.028 291.091 717.448 269.388L605.392 39.4697Z" fill="#FFFAEB"/>
</svg>
